# AST/ASF file generated using VICON BodyLanguage
# -----------------------------------------------
:version 1.10
:name VICON
:units
  mass 1.0
  length 0.45
  angle deg
:documentation
   .ast/.asf automatically generated from VICON data using
   VICON BodyBuilder and BodyLanguage model FoxedUp or BRILLIANT.MOD
:root
   order TX TY TZ RX RY RZ
   axis XYZ
   position 0 0 0  
   orientation 0 0 0 
:bonedata
  begin
     id 1 
     name lhipjoint
     direction 0.610259 -0.730986 0.305356 
     length 2.50941 
     axis 0 0 0  XYZ
  end
  begin
     id 2 
     name lfemur
     direction 0.34202 -0.939693 0  
     length 7.48822  
     axis 0 0 20  XYZ
    dof rx ry rz
    limits (-160.0 20.0)
           (-70.0 70.0)
           (-60.0 70.0)
  end
  begin
     id 3 
     name ltibia
     direction 0.34202 -0.939693 0   
     length 7.60141   
     axis 0 0 20   XYZ
    dof rx
    limits (-10.0 170.0)
  end
  begin
     id 4 
     name lfoot
     direction 0.0673488 -0.185039 0.980421   
     length 2.04049   
     axis -90 7.62852e-016 20   XYZ
    dof rx rz
    limits (-45.0 90.0)
           (-70.0 20.0)
  end
  begin
     id 5 
     name ltoes
     direction 1.5356e-011 -4.21729e-011 1   
     length 1.02897   
     axis -90 7.62852e-016 20   XYZ
    dof rx
    limits (-90.0 20.0)
  end
  begin
     id 6 
     name rhipjoint
     direction -0.57612 -0.754205 0.315056   
     length 2.43216  
     axis 0 0 0  XYZ 
  end
  begin
     id 7 
     name rfemur
     direction -0.34202 -0.939693 0   
     length 7.42799   
     axis 0 0 -20   XYZ
    dof rx ry rz
    limits (-160.0 20.0)
           (-70.0 70.0)
           (-70.0 60.0)
  end
  begin
     id 8 
     name rtibia
     direction -0.34202 -0.939693 0   
     length 7.69484   
     axis 0 0 -20   XYZ
    dof rx
    limits (-10.0 170.0)
 end
 begin
     id 9 
     name rfoot
     direction -0.111837 -0.30727 0.945028   
     length 2.15769  
     axis -90 -7.62852e-016 -20   XYZ
    dof rx rz
    limits (-45.0 90.0)
           (-20.0 70.0)
  end
  begin
     id 10 
     name rtoes
     direction -1.53539e-011 -4.21878e-011 1   
     length 1.07391   
     axis -90 -7.62852e-016 -20   XYZ
    dof rx
    limits (-90.0 20.0)
  end
  begin
     id 11 
     name lowerback
     direction 0.00552624 0.990109 -0.140195   
     length 2.12403   
     axis 0 0 0   XYZ
    dof rx ry rz
    limits (-20.0 45.0)
           (-30.0 30.0)
           (-30.0 30.0)
  end
  begin
     id 12 
     name upperback
     direction 0.00361898 0.999976 -0.00584723   
     length 2.13232   
     axis 0 0 0   XYZ
    dof rx ry rz
    limits (-20.0 45.0)
           (-30.0 30.0)
           (-30.0 30.0)
  end
  begin
     id 13 
     name thorax
     direction -0.000331275 0.998253 0.0590847   
     length 2.17688   
     axis 0 0 0   XYZ
    dof rx ry rz
    limits (-20.0 45.0)
           (-30.0 30.0)
           (-30.0 30.0)
  end
  begin
     id 14 
     name lowerneck
     direction -0.0561561 0.979832 0.19177   
     length 1.64159   
     axis 0 0 0   XYZ
    dof rx ry rz
    limits (-20.0 45.0)
           (-30.0 30.0)
           (-30.0 30.0)
  end
  begin
     id 15 
     name upperneck
     direction 0.0827153 0.979385 -0.184293   
     length 1.68939   
     axis 0 0 0   XYZ
    dof rx ry rz
    limits (-20.0 45.0)
           (-30.0 30.0)
           (-30.0 30.0)
  end
  begin
     id 16
     name head
     direction 0.0278583 0.995936 -0.0856488  
     length 1.70207  
     axis 0 0 0   XYZ
    dof rx ry rz
    limits (-20.0 45.0)
           (-30.0 30.0)
           (-30.0 30.0)
  end
  begin
     id 17 
     name lclavicle
     direction 0.950993 0.301131 -0.0702275  
     length 3.41652  
     axis 0 0 0   XYZ
    dof ry rz
    limits (-20.0 10.0)
           (0.0 20.0)
  end
  begin
     id 18 
     name lhumerus
     direction 1 -4.48981e-011 -3.9662e-029   
     length 5.32955   
     axis 180 -30 -90   XYZ
    dof rx ry rz
    limits (-60.0 90.0)
           (-90.0 90.0)
           (-90.0 90.0)
  end
  begin
     id 19
     name lradius
     direction 1 -4.48925e-011 -9.0549e-027   
     length 3.69232   
     axis 180 -30 -90   XYZ
    dof rx
    limits (-10.0 170.0)
  end
  begin
     id 20
     name lwrist
     direction 1 -4.49007e-011 -1.49005e-026   
     length 1.84616   
     axis 9.0955e-015 90 90   XYZ
    dof ry
    limits (-180.0 0.0)
 end
  begin
     id 21 
     name lhand
     direction 1 -4.49016e-011 -2.98023e-026   
     length 0.536598   
     axis 1.90115e-014 90 90   XYZ
    dof rx rz
    limits (-90.0 90.0)
           (-45.0 45.0)
  end
  begin
     id 22 
     name lfingers
     direction 1 -4.48924e-011 -5.9578e-026   
     length 0.432619   
     axis 3.80223e-014 90 90   XYZ
    dof rx
    limits (0.0 90.0)
  end
  begin
     id 23
     name lthumb
     direction 0.707107 -6.34947e-011 0.707107   
     length 0.621157   
     axis -90 45 -3.84942e-014   XYZ
    dof rx rz
    limits (-45.0 45.0)
           (-45.0 45.0)
  end
  begin
     id 24 
     name rclavicle
     direction -0.955495 0.276497 -0.102848   
     length 3.36357  
     axis 0 0 0   XYZ 
    dof ry rz
    limits (-10.0 20.0)
           (-20.0 0.0)
  end
  begin
     id 25 
     name rhumerus
     direction -1 -4.48961e-011 3.30983e-027  
     length 5.23431   
     axis 180 30 90   XYZ
    dof rx ry rz
    limits (-90.0 60.0)
           (-90.0 90.0)
           (-90.0 90.0)
  end
  begin
     id 26 
     name rradius
     direction -1 -4.48965e-011 -6.63263e-027   
     length 3.55301   
     axis 180 30 90   XYZ
    dof rx
    limits (-10.0 170.0)
  end
  begin
     id 27 
     name rwrist
     direction -1 -4.48942e-011 -1.48958e-026   
     length 1.77651   
     axis 9.0955e-015 -90 -90   XYZ
    dof ry
    limits (-180.0 0.0)
  end
  begin
     id 28
     name rhand
     direction -1 -4.48977e-011 -2.97966e-026   
     length 0.772522   
     axis 1.90115e-014 -90 -90   XYZ
    dof rx rz
    limits (-90.0 90.0)
           (-45.0 45.0)
  end
  begin
     id 29
     name rfingers
     direction -1 -4.49135e-011 -5.96389e-026   
     length 0.622827   
     axis 3.80223e-014 -90 -90   XYZ
    dof rx
    limits (0.0 90.0)
  end
  begin
     id 30
     name rthumb
     direction -0.707107 -6.34969e-011 0.707107   
     length 0.894259   
     axis -90 -45 3.84942e-014   XYZ
    dof rx rz
    limits (-45.0 45.0)
           (-45.0 45.0)
  end
:hierarchy
  begin
    root lhipjoint rhipjoint lowerback
    lhipjoint lfemur
    lfemur ltibia
    ltibia lfoot
    lfoot ltoes
    rhipjoint rfemur
    rfemur rtibia
    rtibia rfoot
    rfoot rtoes
    lowerback upperback
    upperback thorax
    thorax lowerneck lclavicle rclavicle
    lowerneck upperneck
    upperneck head
    lclavicle lhumerus
    lhumerus lradius
    lradius lwrist
    lwrist lhand lthumb
    lhand lfingers
    rclavicle rhumerus
    rhumerus rradius
    rradius rwrist
    rwrist rhand rthumb
    rhand rfingers
  end

#!OML:ASF F:\VICON\USERDATA\INSTALL\rory3\rory3.ASF
:FULLY-SPECIFIED
:DEGREES
448
root 10.993 17.6739 -9.16762 5.83852 -62.0008 -4.3104
lowerback 12.1104 6.21336 4.44181
upperback 1.19365 8.76703 -0.490773
thorax -4.73297 4.22097 -4.32523
lowerneck -17.3426 11.9737 -4.98029
upperneck 45.6719 19.5896 2.2352
head 19.9884 6.70764 5.83716
rclavicle -5.44918e-014 -3.77691e-015
rhumerus -36.2155 -12.8888 -74.701
rradius 35.2851
rwrist 1.95176
rhand -15.4046 7.41257
rfingers 7.12502
rthumb 10.7745 -22.2911
lclavicle -5.44918e-014 -3.77691e-015
lhumerus -42.0942 13.522 77.662
lradius 30.8622
lwrist -8.0471
lhand -17.7669 26.4753
lfingers 7.12502
lthumb 8.49531 56.2844
rfemur -22.0287 1.15505 21.2078
rtibia 34.4208
rfoot -20.2288 18.3081
rtoes -9.1694
lfemur 0.994496 -21.7305 -23.6508
ltibia 28.0174
lfoot -7.21767 -30.0607
ltoes 26.0868
449
root 11.0869 17.6654 -9.17931 5.94833 -62.7713 -4.28895
lowerback 12.1774 6.18536 4.13108
upperback 1.1653 8.69528 -0.430495
thorax -4.86255 4.18571 -4.09836
lowerneck -17.3872 11.9242 -5.04277
upperneck 45.6475 19.5161 2.21847
head 19.9835 6.65979 5.82464
rclavicle -1.42479e-013 -9.54166e-015
rhumerus -35.9127 -13.0402 -74.5436
rradius 35.3315
rwrist 2.45092
rhand -15.7452 7.10853
rfingers 7.12502
rthumb 10.4459 -22.612
lclavicle -1.42479e-013 -9.54166e-015
lhumerus -41.9392 13.3297 77.9083
lradius 31.1007
lwrist -7.64877
lhand -18.3798 26.4927
lfingers 7.12502
lthumb 7.90377 56.325
rfemur -22.6358 1.15638 21.0282
rtibia 34.5172
rfoot -20.1238 18.7958
rtoes -8.39119
lfemur 1.2953 -21.6161 -23.9824
ltibia 26.9835
lfoot -6.79924 -30.1011
ltoes 29.6186
450
root 11.1845 17.6585 -9.19379 6.05328 -63.4318 -4.2397
lowerback 11.9869 6.12512 4.29992
upperback 1.42631 8.59971 -0.754831
thorax -4.41472 4.1551 -4.46412
lowerneck -17.9485 11.8025 -4.78474
upperneck 45.5326 19.2229 2.28688
head 20.1054 6.5742 5.82019
rclavicle -9.10931e-014 -2.78299e-015
rhumerus -35.051 -14.2694 -74.6988
rradius 35.147
rwrist 3.61512
rhand -15.8611 7.00561
rfingers 7.12502
rthumb 10.3341 -22.7205
lclavicle -9.10931e-014 -2.78299e-015
lhumerus -40.9441 12.6245 78.0326
lradius 31.1849
lwrist -7.08964
lhand -18.5987 26.6573
lfingers 7.12502
lthumb 7.69254 56.4974
rfemur -23.2419 0.847829 20.8874
rtibia 34.5416
rfoot -19.866 19.5275
rtoes -7.13842
lfemur 1.42237 -21.4198 -24.1992
ltibia 26.113
lfoot -7.92113 -29.3289
ltoes 28.8712
451
root 11.2813 17.6545 -9.21019 6.19714 -63.9928 -4.23266
lowerback 11.9346 5.93558 4.58797
upperback 1.55168 8.35644 -1.16108
thorax -4.17439 4.04076 -4.99179
lowerneck -18.2965 11.8114 -4.38748
upperneck 45.3958 19.0285 2.38668
head 20.1574 6.5672 5.80013
rclavicle 1.43846e-013 -7.09413e-015
rhumerus -34.3325 -15.1462 -75.2488
rradius 35.0293
rwrist 4.41857
rhand -15.6516 7.10398
rfingers 7.12502
rthumb 10.5362 -22.6119
lclavicle 1.43846e-013 -7.09413e-015
lhumerus -40.2876 12.1733 77.7092
lradius 31.3389
lwrist -6.86941
lhand -18.537 26.7821
lfingers 7.12502
lthumb 7.75203 56.62
rfemur -23.7903 0.530343 20.7958
rtibia 34.4849
rfoot -19.6745 20.1216
rtoes -9.01156
lfemur 1.35945 -20.8935 -24.2505
ltibia 25.4225
lfoot -10.2254 -28.0404
ltoes 24.4567
452
root 11.3787 17.649 -9.2263 6.49077 -64.4103 -4.40185
lowerback 12.1782 5.92202 4.02199
upperback 1.39836 8.3002 -0.763818
thorax -4.61742 4.00216 -4.31201
lowerneck -18.1337 11.6701 -4.66607
upperneck 45.4848 18.937 2.27162
head 20.1653 6.4607 5.75825
rclavicle 9.89451e-014 1.07344e-014
rhumerus -34.3259 -14.8035 -74.7368
rradius 35.218
rwrist 4.27398
rhand -15.6461 7.21413
rfingers 7.12502
rthumb 10.5416 -22.5015
lclavicle 9.89451e-014 1.07344e-014
lhumerus -40.4019 12.2677 78.2179
lradius 31.4831
lwrist -7.03074
lhand -18.6612 26.4838
lfingers 7.12502
lthumb 7.63219 56.3261
rfemur -24.2767 0.183285 20.8011
rtibia 34.3477
rfoot -19.5903 20.498
rtoes -13.3906
lfemur 1.14324 -20.3175 -24.1225
ltibia 24.9388
lfoot -11.138 -27.7295
ltoes 23.411
453
root 11.477 17.6408 -9.24322 6.97139 -64.7707 -4.72691
lowerback 12.2509 5.77846 3.75495
upperback 1.33179 8.09108 -0.548896
thorax -4.81651 3.89598 -3.93208
lowerneck -17.9798 11.5941 -4.72816
upperneck 45.3645 18.8663 2.07836
head 20.0784 6.40659 5.63472
rclavicle 6.8705e-014 -5.66536e-015
rhumerus -34.0728 -14.4691 -74.6664
rradius 35.3809
rwrist 4.16652
rhand -15.7676 7.24319
rfingers 7.12502
rthumb 10.4244 -22.4784
lclavicle 6.8705e-014 -5.66536e-015
lhumerus -40.281 12.2349 78.515
lradius 31.6234
lwrist -6.84779
lhand -18.9535 25.9195
lfingers 7.12502
lthumb 7.35008 55.7719
rfemur -24.7895 -0.170567 20.8828
rtibia 34.1485
rfoot -19.6677 20.6374
rtoes -17.2079
lfemur 0.748553 -19.6936 -23.8272
ltibia 24.5921
lfoot -10.7657 -28.5625
ltoes 25.5533
454
root 11.5717 17.6431 -9.2678 7.21393 -65.1287 -4.76492
lowerback 12.3117 5.63333 3.37495
upperback 1.27412 7.85686 -0.457697
thorax -4.9954 3.78102 -3.6114
lowerneck -17.9625 11.5424 -4.63461
upperneck 45.3229 18.7744 1.94467
head 20.0949 6.36051 5.53755
rclavicle 1.73191e-014 -1.36167e-014
rhumerus -33.77 -14.3774 -74.7794
rradius 35.5276
rwrist 4.02981
rhand -15.7824 7.19782
rfingers 7.12502
rthumb 10.4101 -22.5245
lclavicle 1.73191e-014 -1.36167e-014
lhumerus -40.0934 12.1756 78.6247
lradius 31.8497
lwrist -6.8229
lhand -18.8738 26.0665
lfingers 7.12502
lthumb 7.42696 55.9161
rfemur -25.2929 -0.521019 20.8636
rtibia 33.9107
rfoot -19.8607 20.5848
rtoes -20.2667
lfemur 0.254732 -19.0937 -23.5798
ltibia 24.271
lfoot -10.6313 -29.1991
ltoes 26.3911
455
root 11.6619 17.6513 -9.29419 7.18209 -65.555 -4.59812
lowerback 12.4397 5.56274 2.95348
upperback 1.24323 7.7121 -0.426467
thorax -5.17004 3.71163 -3.34714
lowerneck -17.9254 11.4085 -4.63656
upperneck 45.2974 18.5313 1.9309
head 20.085 6.26068 5.47857
rclavicle 2.6662e-014 2.38542e-015
rhumerus -33.5473 -14.4702 -74.8809
rradius 35.7294
rwrist 3.68311
rhand -15.7476 7.10146
rfingers 7.12502
rthumb 10.4436 -22.6191
lclavicle 2.6662e-014 2.38542e-015
lhumerus -39.8766 12.1433 78.5883
lradius 32.1494
lwrist -7.51189
lhand -16.688 27.7799
lfingers 7.12502
lthumb 9.53641 57.5441
rfemur -25.66 -0.958658 20.771
rtibia 33.6228
rfoot -19.8425 20.7744
rtoes -22.9584
lfemur -0.155776 -18.6212 -23.4756
ltibia 23.9715
lfoot -10.6227 -29.3431
ltoes 26.7244
456
root 11.7471 17.6586 -9.31891 7.37232 -66.3766 -4.5454
lowerback 12.3268 5.64477 2.46861
upperback 1.23774 7.75328 -0.407874
thorax -5.17753 3.74194 -3.05882
lowerneck -17.8878 11.2196 -4.85431
upperneck 45.1455 18.2005 2.05722
head 19.9319 6.13403 5.48218
rclavicle -3.49116e-014 -1.76918e-014
rhumerus -33.3358 -14.8192 -74.8851
rradius 35.9492
rwrist 3.71777
rhand -15.5192 7.00537
rfingers 7.12502
rthumb 10.6639 -22.704
lclavicle -3.49116e-014 -1.76918e-014
lhumerus -39.5257 11.5379 78.9991
lradius 32.2054
lwrist -6.36489
lhand -16.5688 27.8289
lfingers 7.12502
lthumb 9.65143 57.5878
rfemur -26.1383 -1.11159 20.6921
rtibia 33.3052
rfoot -19.762 21.0052
rtoes -25.3544
lfemur -0.664745 -17.8846 -23.3482
ltibia 23.7177
lfoot -9.98417 -29.754
ltoes 28.8545
